<?xml version="1.0" encoding="utf-8"?>
<!-- Generator: Adobe Illustrator 16.0.0, SVG Export Plug-In . SVG Version: 6.00 Build 0)  -->
<!DOCTYPE svg PUBLIC "-//W3C//DTD SVG 1.1//EN" "http://www.w3.org/Graphics/SVG/1.1/DTD/svg11.dtd">
<svg version="1.1" id="Layer_1" xmlns="http://www.w3.org/2000/svg" xmlns:xlink="http://www.w3.org/1999/xlink" x="0px" y="0px" viewBox="0 0 512 512" enable-background="new 0 0 512 512" xml:space="preserve">
<g id="Layer_1_1_">
	<g id="menu">
		<g>
			<g>
				<path d="M396.96,172.31c0,8.78-7.14,15.92-15.92,15.92H130.96c-8.78,0-15.92-7.14-15.92-15.92c0-8.78,7.14-15.92,15.92-15.92
					h250.08C389.82,156.39,396.96,163.53,396.96,172.31z"/>
			</g>
		</g>
		<g>
			<g>
				<path d="M396.96,256c0,8.78-7.14,15.92-15.92,15.92H130.96c-8.78,0-15.92-7.14-15.92-15.92c0-8.78,7.14-15.92,15.92-15.92
					h250.08C389.82,240.08,396.96,247.22,396.96,256z"/>
			</g>
		</g>
		<g>
			<g>
				<path d="M396.96,339.69c0,8.779-7.14,15.92-15.92,15.92H130.96c-8.78,0-15.92-7.141-15.92-15.92
					c0-8.78,7.14-15.931,15.92-15.931h250.08C389.82,323.76,396.96,330.91,396.96,339.69z"/>
			</g>
		</g>
	</g>
</g>
</svg>
